<svg width="42" height="42" viewBox="0 0 42 42" fill="none" xmlns="http://www.w3.org/2000/svg">
<path d="M38.8662 20.7286C38.8662 30.7405 30.7496 38.8662 20.7286 38.8662C10.7076 38.8662 2.59106 30.7405 2.59106 20.7286C2.59106 10.7076 10.7076 2.59106 20.7286 2.59106C30.7496 2.59106 38.8662 10.7076 38.8662 20.7286Z" fill="#283544"/>
<path d="M29.2302 16.1391C29.1312 16.1968 26.7751 17.4153 26.7751 20.117C26.8861 23.1981 29.7484 24.2786 29.7975 24.2786C29.7484 24.3363 29.3654 25.7505 28.2308 27.233C27.3303 28.5099 26.3309 29.7974 24.8133 29.7974C23.3696 29.7974 22.8514 28.9464 21.1857 28.9464C19.3969 28.9464 18.8908 29.7974 17.5212 29.7974C16.0036 29.7974 14.9301 28.441 13.9806 27.176C12.747 25.5203 11.6985 22.9221 11.6615 20.4274C11.6365 19.1054 11.9085 17.806 12.5989 16.7022C13.5734 15.1613 15.3131 14.1152 17.213 14.0807C18.6687 14.035 19.9642 15.012 20.8526 15.012C21.7039 15.012 23.2956 14.0807 25.0965 14.0807C25.8738 14.0815 27.9467 14.2997 29.2302 16.1391ZM20.7295 13.8168C20.4704 12.6095 21.1857 11.4023 21.852 10.6322C22.7034 9.7009 24.048 9.06879 25.2075 9.06879C25.2816 10.276 24.8124 11.46 23.974 12.3224C23.2216 13.2537 21.926 13.9548 20.7295 13.8168Z" fill="white"/>
</svg>
