<svg width="20" height="20" viewBox="0 0 20 20" fill="none" xmlns="http://www.w3.org/2000/svg">
<path d="M12.4998 1.66669H7.49984C6.58317 1.66669 5.83317 2.41669 5.83317 3.33335V5.41669H2.9165V6.25002H4.1665V16.6667C4.1665 17.5834 4.9165 18.3334 5.83317 18.3334H14.1665C15.0832 18.3334 15.8332 17.5834 15.8332 16.6667V6.25002H17.0832V5.41669H14.1665V3.33335C14.1665 2.41669 13.4165 1.66669 12.4998 1.66669ZM6.6665 3.33335C6.6665 2.87377 7.04025 2.50002 7.49984 2.50002H12.4998C12.9594 2.50002 13.3332 2.87377 13.3332 3.33335V5.41669H6.6665V3.33335ZM14.9998 16.6667C14.9998 17.1263 14.6261 17.5 14.1665 17.5H5.83317C5.37359 17.5 4.99984 17.1263 4.99984 16.6667V6.25002H14.9998V16.6667Z" fill="white"/>
<path d="M8.75029 8.75006H7.9165V14.5834H8.75029V8.75006Z" fill="white"/>
<path d="M12.0833 8.75006H11.2495V14.5834H12.0833V8.75006Z" fill="white"/>
</svg>
